<?xml version="1.0" encoding="UTF-8" standalone="no"?>
<!DOCTYPE svg PUBLIC "-//W3C//DTD SVG 1.1//EN"
 "http://www.w3.org/Graphics/SVG/1.1/DTD/svg11.dtd">
<!-- Generated by graphviz version 2.43.0 (0)
 -->
<!-- Title: pipeline_dag_20220510_083717 Pages: 1 -->
<svg width="2847pt" height="796pt"
 viewBox="0.00 0.00 2846.84 796.20" xmlns="http://www.w3.org/2000/svg" xmlns:xlink="http://www.w3.org/1999/xlink">
<g id="graph0" class="graph" transform="scale(1 1) rotate(0) translate(4 792.2)">
<title>pipeline_dag_20220510_083717</title>
<polygon fill="white" stroke="transparent" points="-4,4 -4,-792.2 2842.84,-792.2 2842.84,4 -4,4"/>
<!-- p0 -->
<g id="node1" class="node">
<title>p0</title>
<ellipse fill="black" stroke="black" cx="383.84" cy="-565.8" rx="3.6" ry="3.6"/>
<text text-anchor="middle" x="325.74" y="-573.2" font-family="Times,serif" font-size="14.00">Channel.empty</text>
</g>
<!-- p48 -->
<g id="node2" class="node">
<title>p48</title>
<ellipse fill="none" stroke="black" cx="412.84" cy="-478.8" rx="3.5" ry="3.5"/>
<text text-anchor="middle" x="432.84" y="-486.1" font-family="Times,serif" font-size="14.00">collect</text>
</g>
<!-- p0&#45;&gt;p48 -->
<g id="edge1" class="edge">
<title>p0&#45;&gt;p48</title>
<path fill="none" stroke="black" d="M383.28,-561.98C381.87,-554.18 378.69,-531.78 384.84,-514.8 388.55,-504.54 396.6,-495.02 403.12,-488.5"/>
<polygon fill="black" stroke="black" points="405.53,-491.05 410.51,-481.7 400.78,-485.9 405.53,-491.05"/>
<text text-anchor="middle" x="447.84" y="-518.6" font-family="Times,serif" font-size="14.00">indices_mirdeep2</text>
</g>
<!-- p49 -->
<g id="node59" class="node">
<title>p49</title>
<ellipse fill="none" stroke="black" cx="622.84" cy="-391.8" rx="94.78" ry="18"/>
<text text-anchor="middle" x="622.84" y="-388.1" font-family="Times,serif" font-size="14.00">mapper_mirdeep2</text>
</g>
<!-- p48&#45;&gt;p49 -->
<g id="edge58" class="edge">
<title>p48&#45;&gt;p49</title>
<path fill="none" stroke="black" d="M415.85,-476.78C427.75,-472.73 472.62,-457.33 508.84,-442.8 532.23,-433.42 557.98,-422.2 579.07,-412.78"/>
<polygon fill="black" stroke="black" points="580.72,-415.87 588.41,-408.58 577.85,-409.49 580.72,-415.87"/>
</g>
<!-- p1 -->
<g id="node3" class="node">
<title>p1</title>
<ellipse fill="black" stroke="black" cx="342.84" cy="-391.8" rx="3.6" ry="3.6"/>
<text text-anchor="middle" x="393.74" y="-399.2" font-family="Times,serif" font-size="14.00">Channel.empty</text>
</g>
<!-- p52 -->
<g id="node4" class="node">
<title>p52</title>
<ellipse fill="none" stroke="black" cx="477.84" cy="-304.8" rx="55.49" ry="18"/>
<text text-anchor="middle" x="477.84" y="-301.1" font-family="Times,serif" font-size="14.00">mirdeep2</text>
</g>
<!-- p1&#45;&gt;p52 -->
<g id="edge2" class="edge">
<title>p1&#45;&gt;p52</title>
<path fill="none" stroke="black" d="M343.71,-388.07C346.51,-379.71 356.1,-354.23 372.84,-340.8 381.59,-333.78 404.19,-325.89 426.19,-319.38"/>
<polygon fill="black" stroke="black" points="427.23,-322.72 435.87,-316.58 425.29,-315.99 427.23,-322.72"/>
<text text-anchor="middle" x="390.84" y="-344.6" font-family="Times,serif" font-size="14.00">fasta</text>
</g>
<!-- p2 -->
<g id="node5" class="node">
<title>p2</title>
<ellipse fill="black" stroke="black" cx="309.84" cy="-697" rx="3.6" ry="3.6"/>
<text text-anchor="middle" x="241.24" y="-704.4" font-family="Times,serif" font-size="14.00">Channel.fromPath</text>
</g>
<!-- p3 -->
<g id="node6" class="node">
<title>p3</title>
<ellipse fill="none" stroke="black" cx="309.84" cy="-638.4" rx="3.5" ry="3.5"/>
<text text-anchor="middle" x="277.34" y="-645.7" font-family="Times,serif" font-size="14.00">ifEmpty</text>
</g>
<!-- p2&#45;&gt;p3 -->
<g id="edge3" class="edge">
<title>p2&#45;&gt;p3</title>
<path fill="none" stroke="black" d="M309.84,-693.27C309.84,-685.97 309.84,-665.66 309.84,-652.17"/>
<polygon fill="black" stroke="black" points="313.34,-651.97 309.84,-641.97 306.34,-651.97 313.34,-651.97"/>
</g>
<!-- p41 -->
<g id="node7" class="node">
<title>p41</title>
<ellipse fill="none" stroke="black" cx="309.84" cy="-565.8" rx="3.5" ry="3.5"/>
<text text-anchor="middle" x="282.84" y="-551.1" font-family="Times,serif" font-size="14.00">collect</text>
</g>
<!-- p3&#45;&gt;p41 -->
<g id="edge4" class="edge">
<title>p3&#45;&gt;p41</title>
<path fill="none" stroke="black" d="M309.84,-634.72C309.84,-625.81 309.84,-596.78 309.84,-579.69"/>
<polygon fill="black" stroke="black" points="313.34,-579.48 309.84,-569.48 306.34,-579.48 313.34,-579.48"/>
<text text-anchor="middle" x="346.34" y="-605.6" font-family="Times,serif" font-size="14.00">bt_indices</text>
</g>
<!-- p42 -->
<g id="node32" class="node">
<title>p42</title>
<ellipse fill="none" stroke="black" cx="309.84" cy="-478.8" rx="59.59" ry="18"/>
<text text-anchor="middle" x="309.84" y="-475.1" font-family="Times,serif" font-size="14.00">bowtie_ref</text>
</g>
<!-- p41&#45;&gt;p42 -->
<g id="edge51" class="edge">
<title>p41&#45;&gt;p42</title>
<path fill="none" stroke="black" d="M309.84,-561.97C309.84,-553.48 309.84,-527.55 309.84,-507.07"/>
<polygon fill="black" stroke="black" points="313.34,-506.97 309.84,-496.97 306.34,-506.97 313.34,-506.97"/>
</g>
<!-- p4 -->
<g id="node8" class="node">
<title>p4</title>
<ellipse fill="black" stroke="black" cx="2652.84" cy="-304.8" rx="3.6" ry="3.6"/>
<text text-anchor="middle" x="2594.74" y="-312.2" font-family="Times,serif" font-size="14.00">Channel.empty</text>
</g>
<!-- p55 -->
<g id="node9" class="node">
<title>p55</title>
<ellipse fill="none" stroke="black" cx="2652.84" cy="-217.8" rx="3.5" ry="3.5"/>
<text text-anchor="middle" x="2625.84" y="-225.1" font-family="Times,serif" font-size="14.00">collect</text>
</g>
<!-- p4&#45;&gt;p55 -->
<g id="edge5" class="edge">
<title>p4&#45;&gt;p55</title>
<path fill="none" stroke="black" d="M2652.84,-300.97C2652.84,-290.29 2652.84,-251.99 2652.84,-231.67"/>
<polygon fill="black" stroke="black" points="2656.34,-231.38 2652.84,-221.38 2649.34,-231.38 2656.34,-231.38"/>
<text text-anchor="middle" x="2745.84" y="-257.6" font-family="Times,serif" font-size="14.00">ch_multiqc_custom_config</text>
</g>
<!-- p56 -->
<g id="node64" class="node">
<title>p56</title>
<ellipse fill="none" stroke="black" cx="2598.84" cy="-145.2" rx="3.5" ry="3.5"/>
<text text-anchor="middle" x="2566.34" y="-152.5" font-family="Times,serif" font-size="14.00">ifEmpty</text>
</g>
<!-- p55&#45;&gt;p56 -->
<g id="edge65" class="edge">
<title>p55&#45;&gt;p56</title>
<path fill="none" stroke="black" d="M2652.81,-214.19C2652.59,-206.18 2650.92,-181.61 2638.84,-166.8 2631.97,-158.38 2620.76,-153.03 2611.96,-149.9"/>
<polygon fill="black" stroke="black" points="2612.91,-146.53 2602.33,-146.99 2610.89,-153.23 2612.91,-146.53"/>
</g>
<!-- p5 -->
<g id="node10" class="node">
<title>p5</title>
<ellipse fill="black" stroke="black" cx="1056.84" cy="-769.6" rx="3.6" ry="3.6"/>
<text text-anchor="middle" x="988.24" y="-777" font-family="Times,serif" font-size="14.00">Channel.fromPath</text>
</g>
<!-- p6 -->
<g id="node11" class="node">
<title>p6</title>
<ellipse fill="none" stroke="black" cx="1056.84" cy="-697" rx="3.5" ry="3.5"/>
<text text-anchor="middle" x="1024.34" y="-704.3" font-family="Times,serif" font-size="14.00">ifEmpty</text>
</g>
<!-- p5&#45;&gt;p6 -->
<g id="edge6" class="edge">
<title>p5&#45;&gt;p6</title>
<path fill="none" stroke="black" d="M1056.84,-765.92C1056.84,-757.01 1056.84,-727.98 1056.84,-710.89"/>
<polygon fill="black" stroke="black" points="1060.34,-710.68 1056.84,-700.68 1053.34,-710.68 1060.34,-710.68"/>
</g>
<!-- p7 -->
<g id="node12" class="node">
<title>p7</title>
<ellipse fill="none" stroke="black" cx="1056.84" cy="-638.4" rx="3.5" ry="3.5"/>
<text text-anchor="middle" x="1039.34" y="-645.7" font-family="Times,serif" font-size="14.00">into</text>
</g>
<!-- p6&#45;&gt;p7 -->
<g id="edge7" class="edge">
<title>p6&#45;&gt;p7</title>
<path fill="none" stroke="black" d="M1056.84,-693.27C1056.84,-685.97 1056.84,-665.66 1056.84,-652.17"/>
<polygon fill="black" stroke="black" points="1060.34,-651.97 1056.84,-641.97 1053.34,-651.97 1060.34,-651.97"/>
</g>
<!-- p53 -->
<g id="node13" class="node">
<title>p53</title>
<ellipse fill="none" stroke="black" cx="616.84" cy="-565.8" rx="3.5" ry="3.5"/>
<text text-anchor="middle" x="589.84" y="-573.1" font-family="Times,serif" font-size="14.00">collect</text>
</g>
<!-- p7&#45;&gt;p53 -->
<g id="edge8" class="edge">
<title>p7&#45;&gt;p53</title>
<path fill="none" stroke="black" d="M1053.22,-636.93C1036.79,-634.78 967.5,-625.61 910.84,-616.8 802.12,-599.89 671.31,-576.6 630,-569.17"/>
<polygon fill="black" stroke="black" points="630.48,-565.71 620.02,-567.38 629.24,-572.6 630.48,-565.71"/>
<text text-anchor="middle" x="981.84" y="-605.6" font-family="Times,serif" font-size="14.00">raw_reads_mirtrace</text>
</g>
<!-- p17 -->
<g id="node14" class="node">
<title>p17</title>
<ellipse fill="none" stroke="black" cx="1056.84" cy="-565.8" rx="64.19" ry="18"/>
<text text-anchor="middle" x="1056.84" y="-562.1" font-family="Times,serif" font-size="14.00">trim_galore</text>
</g>
<!-- p7&#45;&gt;p17 -->
<g id="edge9" class="edge">
<title>p7&#45;&gt;p17</title>
<path fill="none" stroke="black" d="M1056.84,-634.72C1056.84,-628.05 1056.84,-610.1 1056.84,-594.33"/>
<polygon fill="black" stroke="black" points="1060.34,-593.93 1056.84,-583.93 1053.34,-593.93 1060.34,-593.93"/>
<text text-anchor="middle" x="1135.34" y="-605.6" font-family="Times,serif" font-size="14.00">raw_reads_trimgalore</text>
</g>
<!-- p16 -->
<g id="node15" class="node">
<title>p16</title>
<ellipse fill="none" stroke="black" cx="1700.84" cy="-565.8" rx="38.99" ry="18"/>
<text text-anchor="middle" x="1700.84" y="-562.1" font-family="Times,serif" font-size="14.00">fastqc</text>
</g>
<!-- p7&#45;&gt;p16 -->
<g id="edge10" class="edge">
<title>p7&#45;&gt;p16</title>
<path fill="none" stroke="black" d="M1060.3,-637.02C1102.17,-632.43 1511.91,-587.51 1653.22,-572.02"/>
<polygon fill="black" stroke="black" points="1653.75,-575.48 1663.31,-570.91 1652.99,-568.52 1653.75,-575.48"/>
<text text-anchor="middle" x="1440.84" y="-605.6" font-family="Times,serif" font-size="14.00">raw_reads_fastqc</text>
</g>
<!-- p54 -->
<g id="node62" class="node">
<title>p54</title>
<ellipse fill="none" stroke="black" cx="533.84" cy="-478.8" rx="50.89" ry="18"/>
<text text-anchor="middle" x="533.84" y="-475.1" font-family="Times,serif" font-size="14.00">mirtrace</text>
</g>
<!-- p53&#45;&gt;p54 -->
<g id="edge63" class="edge">
<title>p53&#45;&gt;p54</title>
<path fill="none" stroke="black" d="M613.44,-564.45C601.02,-562.97 557.75,-556.05 538.84,-529.8 534.16,-523.3 532.19,-515.04 531.59,-507.11"/>
<polygon fill="black" stroke="black" points="535.09,-507.01 531.48,-497.05 528.09,-507.09 535.09,-507.01"/>
</g>
<!-- p22 -->
<g id="node26" class="node">
<title>p22</title>
<ellipse fill="none" stroke="black" cx="2233.84" cy="-478.8" rx="125.38" ry="18"/>
<text text-anchor="middle" x="2233.84" y="-475.1" font-family="Times,serif" font-size="14.00">bowtie_miRBase_mature</text>
</g>
<!-- p17&#45;&gt;p22 -->
<g id="edge23" class="edge">
<title>p17&#45;&gt;p22</title>
<path fill="none" stroke="black" d="M1121.22,-565.13C1253.54,-565.14 1551.69,-561.51 1647.84,-529.8 1659.43,-525.98 1659.22,-518.52 1670.84,-514.8 1760.65,-486.02 2000.85,-504.53 2094.84,-496.8 2108.1,-495.71 2122.04,-494.31 2135.76,-492.78"/>
<polygon fill="black" stroke="black" points="2136.17,-496.26 2145.71,-491.65 2135.38,-489.3 2136.17,-496.26"/>
<text text-anchor="middle" x="1752.34" y="-518.6" font-family="Times,serif" font-size="14.00">trimmed_reads_bowtie</text>
</g>
<!-- p21 -->
<g id="node31" class="node">
<title>p21</title>
<ellipse fill="none" stroke="black" cx="1537.84" cy="-478.8" rx="48.19" ry="18"/>
<text text-anchor="middle" x="1537.84" y="-475.1" font-family="Times,serif" font-size="14.00">collapse</text>
</g>
<!-- p17&#45;&gt;p21 -->
<g id="edge24" class="edge">
<title>p17&#45;&gt;p21</title>
<path fill="none" stroke="black" d="M1120.02,-562.13C1213.75,-557.65 1384.92,-547.35 1443.84,-529.8 1450.2,-527.9 1479.02,-512.39 1503.09,-499.14"/>
<polygon fill="black" stroke="black" points="1504.97,-502.11 1512.03,-494.21 1501.58,-495.98 1504.97,-502.11"/>
<text text-anchor="middle" x="1560.34" y="-518.6" font-family="Times,serif" font-size="14.00">trimmed_reads_collapse</text>
</g>
<!-- p17&#45;&gt;p42 -->
<g id="edge25" class="edge">
<title>p17&#45;&gt;p42</title>
<path fill="none" stroke="black" d="M992.55,-564.15C898.91,-562.3 719.83,-555.39 569.84,-529.8 544.86,-525.54 539.62,-520.1 514.84,-514.8 464.25,-503.98 450.82,-505.6 399.84,-496.8 389.85,-495.08 379.25,-493.16 368.97,-491.24"/>
<polygon fill="black" stroke="black" points="369.31,-487.75 358.83,-489.34 368.02,-494.63 369.31,-487.75"/>
<text text-anchor="middle" x="664.84" y="-518.6" font-family="Times,serif" font-size="14.00">trimmed_reads_bowtie_ref</text>
</g>
<!-- p19 -->
<g id="node33" class="node">
<title>p19</title>
<ellipse fill="none" stroke="black" cx="1259.84" cy="-478.8" rx="55.79" ry="18"/>
<text text-anchor="middle" x="1259.84" y="-475.1" font-family="Times,serif" font-size="14.00">insertsize</text>
</g>
<!-- p17&#45;&gt;p19 -->
<g id="edge26" class="edge">
<title>p17&#45;&gt;p19</title>
<path fill="none" stroke="black" d="M1118.34,-560.05C1165.47,-555.21 1225.45,-546.03 1243.84,-529.8 1250.45,-523.97 1254.35,-515.41 1256.64,-507.02"/>
<polygon fill="black" stroke="black" points="1260.1,-507.56 1258.71,-497.05 1253.25,-506.13 1260.1,-507.56"/>
<text text-anchor="middle" x="1347.34" y="-518.6" font-family="Times,serif" font-size="14.00">trimmed_reads_insertsize</text>
</g>
<!-- p47 -->
<g id="node34" class="node">
<title>p47</title>
<ellipse fill="none" stroke="black" cx="761.84" cy="-478.8" rx="141.88" ry="18"/>
<text text-anchor="middle" x="761.84" y="-475.1" font-family="Times,serif" font-size="14.00">uncompress_trimmed_reads</text>
</g>
<!-- p17&#45;&gt;p47 -->
<g id="edge27" class="edge">
<title>p17&#45;&gt;p47</title>
<path fill="none" stroke="black" d="M992.48,-565.36C918.39,-564.59 802.91,-558.61 771.84,-529.8 765.63,-524.04 762.67,-515.61 761.39,-507.31"/>
<polygon fill="black" stroke="black" points="764.85,-506.74 760.55,-497.06 757.88,-507.31 764.85,-506.74"/>
<text text-anchor="middle" x="890.84" y="-518.6" font-family="Times,serif" font-size="14.00">trimmed_zipped_reads_mirdeep2</text>
</g>
<!-- p58 -->
<g id="node35" class="node">
<title>p58</title>
<ellipse fill="none" stroke="black" cx="1134.84" cy="-348.3" rx="3.5" ry="3.5"/>
<text text-anchor="middle" x="1107.84" y="-355.6" font-family="Times,serif" font-size="14.00">collect</text>
</g>
<!-- p17&#45;&gt;p58 -->
<g id="edge28" class="edge">
<title>p17&#45;&gt;p58</title>
<path fill="none" stroke="black" d="M1046.86,-547.79C1035.93,-526.82 1021.37,-490.34 1032.84,-460.8 1051.45,-412.88 1101.32,-373 1123.7,-356.92"/>
<polygon fill="black" stroke="black" points="1126,-359.58 1132.22,-351.01 1122.01,-353.83 1126,-359.58"/>
<text text-anchor="middle" x="1099.34" y="-475.1" font-family="Times,serif" font-size="14.00">trimgalore_results</text>
</g>
<!-- p18 -->
<g id="node36" class="node">
<title>p18</title>
<ellipse fill="black" stroke="black" cx="1176.84" cy="-478.8" rx="1.8" ry="1.8"/>
</g>
<!-- p17&#45;&gt;p18 -->
<g id="edge29" class="edge">
<title>p17&#45;&gt;p18</title>
<path fill="none" stroke="black" d="M1052.14,-547.57C1050.35,-536.92 1050.27,-523.63 1057.84,-514.8 1088.09,-479.52 1119.93,-518.85 1160.84,-496.8 1164.45,-494.85 1167.71,-491.79 1170.33,-488.79"/>
<polygon fill="black" stroke="black" points="1173.24,-490.74 1176.35,-480.61 1167.6,-486.59 1173.24,-490.74"/>
<text text-anchor="middle" x="1150.84" y="-518.6" font-family="Times,serif" font-size="14.00">trimgalore_fastqc_reports</text>
</g>
<!-- p57 -->
<g id="node30" class="node">
<title>p57</title>
<ellipse fill="none" stroke="black" cx="1515.84" cy="-435.3" rx="3.5" ry="3.5"/>
<text text-anchor="middle" x="1488.84" y="-442.6" font-family="Times,serif" font-size="14.00">collect</text>
</g>
<!-- p16&#45;&gt;p57 -->
<g id="edge22" class="edge">
<title>p16&#45;&gt;p57</title>
<path fill="none" stroke="black" d="M1739.53,-563.22C1787.71,-559.8 1860.61,-548.98 1833.84,-514.8 1794.97,-465.17 1584.88,-442.62 1529.32,-437.48"/>
<polygon fill="black" stroke="black" points="1529.58,-433.98 1519.31,-436.58 1528.96,-440.96 1529.58,-433.98"/>
<text text-anchor="middle" x="1888.84" y="-518.6" font-family="Times,serif" font-size="14.00">fastqc_results</text>
</g>
<!-- p8 -->
<g id="node16" class="node">
<title>p8</title>
<ellipse fill="black" stroke="black" cx="1368.84" cy="-478.8" rx="3.6" ry="3.6"/>
<text text-anchor="middle" x="1413.74" y="-486.2" font-family="Times,serif" font-size="14.00">Channel.from</text>
</g>
<!-- p9 -->
<g id="node17" class="node">
<title>p9</title>
<ellipse fill="none" stroke="black" cx="1335.84" cy="-391.8" rx="3.5" ry="3.5"/>
<text text-anchor="middle" x="1316.84" y="-399.1" font-family="Times,serif" font-size="14.00">map</text>
</g>
<!-- p8&#45;&gt;p9 -->
<g id="edge11" class="edge">
<title>p8&#45;&gt;p9</title>
<path fill="none" stroke="black" d="M1368.29,-475.02C1366.72,-467.32 1361.88,-445.18 1354.84,-427.8 1351.51,-419.59 1346.75,-410.83 1342.83,-404.13"/>
<polygon fill="black" stroke="black" points="1345.62,-401.97 1337.42,-395.25 1339.64,-405.61 1345.62,-401.97"/>
</g>
<!-- p10 -->
<g id="node18" class="node">
<title>p10</title>
<ellipse fill="none" stroke="black" cx="1323.84" cy="-304.8" rx="3.5" ry="3.5"/>
<text text-anchor="middle" x="1295.84" y="-312.1" font-family="Times,serif" font-size="14.00">reduce</text>
</g>
<!-- p9&#45;&gt;p10 -->
<g id="edge12" class="edge">
<title>p9&#45;&gt;p10</title>
<path fill="none" stroke="black" d="M1335.44,-387.97C1333.92,-377.24 1328.47,-338.62 1325.61,-318.38"/>
<polygon fill="black" stroke="black" points="1329.07,-317.8 1324.2,-308.38 1322.14,-318.78 1329.07,-317.8"/>
</g>
<!-- p11 -->
<g id="node19" class="node">
<title>p11</title>
<ellipse fill="none" stroke="black" cx="1320.84" cy="-217.8" rx="3.5" ry="3.5"/>
<text text-anchor="middle" x="1301.84" y="-225.1" font-family="Times,serif" font-size="14.00">map</text>
</g>
<!-- p10&#45;&gt;p11 -->
<g id="edge13" class="edge">
<title>p10&#45;&gt;p11</title>
<path fill="none" stroke="black" d="M1323.74,-300.97C1323.36,-290.24 1322,-251.62 1321.28,-231.38"/>
<polygon fill="black" stroke="black" points="1324.78,-231.25 1320.93,-221.38 1317.79,-231.5 1324.78,-231.25"/>
</g>
<!-- p64 -->
<g id="node20" class="node">
<title>p64</title>
<ellipse fill="none" stroke="black" cx="1350.84" cy="-145.2" rx="3.5" ry="3.5"/>
<text text-anchor="middle" x="1310.34" y="-152.5" font-family="Times,serif" font-size="14.00">collectFile</text>
</g>
<!-- p11&#45;&gt;p64 -->
<g id="edge14" class="edge">
<title>p11&#45;&gt;p64</title>
<path fill="none" stroke="black" d="M1318.07,-215.44C1306.7,-209.69 1264.87,-186.73 1279.84,-166.8 1293.11,-149.14 1320.63,-145.91 1337.24,-145.7"/>
<polygon fill="black" stroke="black" points="1337.32,-149.2 1347.4,-145.93 1337.48,-142.2 1337.32,-149.2"/>
<text text-anchor="middle" x="1360.84" y="-170.6" font-family="Times,serif" font-size="14.00">ch_workflow_summary</text>
</g>
<!-- p66 -->
<g id="node65" class="node">
<title>p66</title>
<ellipse fill="none" stroke="black" cx="1455.84" cy="-72.6" rx="46.29" ry="18"/>
<text text-anchor="middle" x="1455.84" y="-68.9" font-family="Times,serif" font-size="14.00">multiqc</text>
</g>
<!-- p64&#45;&gt;p66 -->
<g id="edge74" class="edge">
<title>p64&#45;&gt;p66</title>
<path fill="none" stroke="black" d="M1353.43,-142.45C1363.19,-135.89 1398.49,-112.16 1424.93,-94.38"/>
<polygon fill="black" stroke="black" points="1427.16,-97.1 1433.51,-88.62 1423.26,-91.29 1427.16,-97.1"/>
</g>
<!-- p12 -->
<g id="node21" class="node">
<title>p12</title>
<ellipse fill="none" stroke="black" cx="1597.84" cy="-217.8" rx="114.28" ry="18"/>
<text text-anchor="middle" x="1597.84" y="-214.1" font-family="Times,serif" font-size="14.00">get_software_versions</text>
</g>
<!-- p63 -->
<g id="node22" class="node">
<title>p63</title>
<ellipse fill="none" stroke="black" cx="1488.84" cy="-145.2" rx="3.5" ry="3.5"/>
<text text-anchor="middle" x="1461.84" y="-152.5" font-family="Times,serif" font-size="14.00">collect</text>
</g>
<!-- p12&#45;&gt;p63 -->
<g id="edge15" class="edge">
<title>p12&#45;&gt;p63</title>
<path fill="none" stroke="black" d="M1520.02,-204.55C1508.26,-199.36 1497.52,-192.06 1489.84,-181.8 1485,-175.33 1484.84,-166.19 1485.84,-158.79"/>
<polygon fill="black" stroke="black" points="1489.32,-159.27 1488.01,-148.76 1482.48,-157.79 1489.32,-159.27"/>
<text text-anchor="middle" x="1575.34" y="-170.6" font-family="Times,serif" font-size="14.00">software_versions_yaml</text>
</g>
<!-- p63&#45;&gt;p66 -->
<g id="edge73" class="edge">
<title>p63&#45;&gt;p66</title>
<path fill="none" stroke="black" d="M1487.74,-141.85C1484.66,-135.25 1475.63,-115.95 1467.97,-99.55"/>
<polygon fill="black" stroke="black" points="1471.07,-97.93 1463.67,-90.35 1464.73,-100.89 1471.07,-97.93"/>
</g>
<!-- p13 -->
<g id="node23" class="node">
<title>p13</title>
<ellipse fill="black" stroke="black" cx="2284.84" cy="-638.4" rx="3.6" ry="3.6"/>
</g>
<!-- p15 -->
<g id="node24" class="node">
<title>p15</title>
<ellipse fill="none" stroke="black" cx="2322.84" cy="-565.8" rx="100.98" ry="18"/>
<text text-anchor="middle" x="2322.84" y="-562.1" font-family="Times,serif" font-size="14.00">make_bowtie_index</text>
</g>
<!-- p13&#45;&gt;p15 -->
<g id="edge16" class="edge">
<title>p13&#45;&gt;p15</title>
<path fill="none" stroke="black" d="M2284.13,-634.66C2282.67,-628.48 2279.88,-613.12 2284.84,-601.8 2286.54,-597.92 2288.91,-594.28 2291.64,-590.92"/>
<polygon fill="black" stroke="black" points="2294.21,-593.3 2298.53,-583.62 2289.12,-588.49 2294.21,-593.3"/>
<text text-anchor="middle" x="2310.84" y="-605.6" font-family="Times,serif" font-size="14.00">mature</text>
</g>
<!-- p15&#45;&gt;p22 -->
<g id="edge18" class="edge">
<title>p15&#45;&gt;p22</title>
<path fill="none" stroke="black" d="M2268.78,-550.45C2258.5,-545.45 2248.8,-538.75 2241.84,-529.8 2236.89,-523.43 2234.46,-515.2 2233.38,-507.26"/>
<polygon fill="black" stroke="black" points="2236.86,-506.9 2232.64,-497.18 2229.88,-507.41 2236.86,-506.9"/>
<text text-anchor="middle" x="2318.34" y="-518.6" font-family="Times,serif" font-size="14.00">mature_index_bowtie</text>
</g>
<!-- p23 -->
<g id="node27" class="node">
<title>p23</title>
<ellipse fill="none" stroke="black" cx="2250.84" cy="-391.8" rx="124.58" ry="18"/>
<text text-anchor="middle" x="2250.84" y="-388.1" font-family="Times,serif" font-size="14.00">bowtie_miRBase_hairpin</text>
</g>
<!-- p15&#45;&gt;p23 -->
<g id="edge19" class="edge">
<title>p15&#45;&gt;p23</title>
<path fill="none" stroke="black" d="M2372.36,-549.9C2381.29,-544.94 2389.46,-538.4 2394.84,-529.8 2418.89,-491.37 2422.85,-463.44 2394.84,-427.8 2387.95,-419.03 2369.22,-412.19 2347.45,-406.98"/>
<polygon fill="black" stroke="black" points="2348.14,-403.54 2337.62,-404.77 2346.61,-410.37 2348.14,-403.54"/>
<text text-anchor="middle" x="2489.84" y="-475.1" font-family="Times,serif" font-size="14.00">hairpin_index_bowtie</text>
</g>
<!-- p26 -->
<g id="node28" class="node">
<title>p26</title>
<ellipse fill="none" stroke="black" cx="1709.84" cy="-391.8" rx="172.77" ry="18"/>
<text text-anchor="middle" x="1709.84" y="-388.1" font-family="Times,serif" font-size="14.00">bowtie_miRBase_hairpin_collapsed</text>
</g>
<!-- p15&#45;&gt;p26 -->
<g id="edge20" class="edge">
<title>p15&#45;&gt;p26</title>
<path fill="none" stroke="black" d="M2236.62,-556.47C2156.34,-547.16 2034.03,-528.99 1931.84,-496.8 1864.57,-475.61 1791.37,-438.28 1748.1,-414.58"/>
<polygon fill="black" stroke="black" points="1749.78,-411.51 1739.33,-409.74 1746.4,-417.63 1749.78,-411.51"/>
<text text-anchor="middle" x="2015.84" y="-475.1" font-family="Times,serif" font-size="14.00">hairpin_index_bowtie_2</text>
</g>
<!-- p36 -->
<g id="node29" class="node">
<title>p36</title>
<ellipse fill="none" stroke="black" cx="1853.84" cy="-217.8" rx="103.98" ry="18"/>
<text text-anchor="middle" x="1853.84" y="-214.1" font-family="Times,serif" font-size="14.00">mirtop_bam_hairpin</text>
</g>
<!-- p15&#45;&gt;p36 -->
<g id="edge21" class="edge">
<title>p15&#45;&gt;p36</title>
<path fill="none" stroke="black" d="M2404.82,-555.21C2484.91,-543.48 2594.84,-520.06 2594.84,-479.8 2594.84,-479.8 2594.84,-479.8 2594.84,-303.8 2594.84,-272.22 2164.54,-239.41 1959.75,-225.58"/>
<polygon fill="black" stroke="black" points="1959.79,-222.08 1949.57,-224.9 1959.32,-229.06 1959.79,-222.08"/>
<text text-anchor="middle" x="2647.84" y="-388.1" font-family="Times,serif" font-size="14.00">hairpin_mirtop</text>
</g>
<!-- p14 -->
<g id="node25" class="node">
<title>p14</title>
<ellipse fill="black" stroke="black" cx="2359.84" cy="-638.4" rx="3.6" ry="3.6"/>
</g>
<!-- p14&#45;&gt;p15 -->
<g id="edge17" class="edge">
<title>p14&#45;&gt;p15</title>
<path fill="none" stroke="black" d="M2358.43,-634.72C2354.84,-627.85 2344.98,-609.06 2336.56,-592.97"/>
<polygon fill="black" stroke="black" points="2339.56,-591.16 2331.81,-583.93 2333.36,-594.41 2339.56,-591.16"/>
<text text-anchor="middle" x="2374.84" y="-605.6" font-family="Times,serif" font-size="14.00">hairpin</text>
</g>
<!-- p22&#45;&gt;p23 -->
<g id="edge33" class="edge">
<title>p22&#45;&gt;p23</title>
<path fill="none" stroke="black" d="M2220,-460.58C2213.95,-450.9 2209.18,-438.62 2213.84,-427.8 2215.45,-424.07 2217.67,-420.55 2220.23,-417.29"/>
<polygon fill="black" stroke="black" points="2222.98,-419.47 2227.15,-409.73 2217.82,-414.74 2222.98,-419.47"/>
<text text-anchor="middle" x="2304.34" y="-431.6" font-family="Times,serif" font-size="14.00">mature_unmapped_reads</text>
</g>
<!-- p27 -->
<g id="node38" class="node">
<title>p27</title>
<ellipse fill="none" stroke="black" cx="1980.84" cy="-304.8" rx="3.5" ry="3.5"/>
<text text-anchor="middle" x="1963.84" y="-312.1" font-family="Times,serif" font-size="14.00">mix</text>
</g>
<!-- p22&#45;&gt;p27 -->
<g id="edge32" class="edge">
<title>p22&#45;&gt;p27</title>
<path fill="none" stroke="black" d="M2138.89,-467C2067.9,-456.73 1979.37,-438.54 1956.84,-409.8 1934.74,-381.62 1959.69,-336.71 1973.24,-316.4"/>
<polygon fill="black" stroke="black" points="1976.21,-318.26 1979.1,-308.07 1970.49,-314.23 1976.21,-318.26"/>
<text text-anchor="middle" x="2036.84" y="-388.1" font-family="Times,serif" font-size="14.00">miRBase_mature_bam</text>
</g>
<!-- p23&#45;&gt;p27 -->
<g id="edge34" class="edge">
<title>p23&#45;&gt;p27</title>
<path fill="none" stroke="black" d="M2159.65,-379.51C2087.4,-370.37 1998.05,-358.6 1994.84,-355.8 1984.37,-346.68 1981.43,-330.43 1980.75,-318.94"/>
<polygon fill="black" stroke="black" points="1984.25,-318.58 1980.66,-308.61 1977.25,-318.64 1984.25,-318.58"/>
<text text-anchor="middle" x="2074.34" y="-344.6" font-family="Times,serif" font-size="14.00">miRBase_hairpin_bam</text>
</g>
<!-- p25 -->
<g id="node39" class="node">
<title>p25</title>
<ellipse fill="black" stroke="black" cx="2162.84" cy="-304.8" rx="1.8" ry="1.8"/>
</g>
<!-- p23&#45;&gt;p25 -->
<g id="edge35" class="edge">
<title>p23&#45;&gt;p25</title>
<path fill="none" stroke="black" d="M2188.29,-376.19C2178.68,-371.25 2169.94,-364.64 2163.84,-355.8 2155.88,-344.27 2157.56,-327.42 2159.88,-316.53"/>
<polygon fill="black" stroke="black" points="2163.34,-317.17 2162.56,-306.6 2156.58,-315.34 2163.34,-317.17"/>
<text text-anchor="middle" x="2270.84" y="-344.6" font-family="Times,serif" font-size="14.00">miRBase_hairpin_bam_mirtop</text>
</g>
<!-- p24 -->
<g id="node40" class="node">
<title>p24</title>
<ellipse fill="black" stroke="black" cx="2399.84" cy="-304.8" rx="1.8" ry="1.8"/>
</g>
<!-- p23&#45;&gt;p24 -->
<g id="edge36" class="edge">
<title>p23&#45;&gt;p24</title>
<path fill="none" stroke="black" d="M2336.02,-378.57C2351.17,-373.42 2365.9,-366.12 2377.84,-355.8 2389.54,-345.69 2395.27,-328.16 2397.88,-316.77"/>
<polygon fill="black" stroke="black" points="2401.37,-317.12 2399.73,-306.66 2394.48,-315.86 2401.37,-317.12"/>
<text text-anchor="middle" x="2477.84" y="-344.6" font-family="Times,serif" font-size="14.00">hairpin_unmapped_reads</text>
</g>
<!-- p34 -->
<g id="node41" class="node">
<title>p34</title>
<ellipse fill="none" stroke="black" cx="1848.84" cy="-304.8" rx="3.5" ry="3.5"/>
<text text-anchor="middle" x="1821.84" y="-312.1" font-family="Times,serif" font-size="14.00">collect</text>
</g>
<!-- p26&#45;&gt;p34 -->
<g id="edge37" class="edge">
<title>p26&#45;&gt;p34</title>
<path fill="none" stroke="black" d="M1705.07,-373.51C1703.25,-362.83 1703.16,-349.54 1710.84,-340.8 1746.44,-300.29 1782.35,-346.4 1830.84,-322.8 1834.36,-321.09 1837.65,-318.44 1840.43,-315.74"/>
<polygon fill="black" stroke="black" points="1843.26,-317.83 1847.24,-308.01 1838.01,-313.21 1843.26,-317.83"/>
<text text-anchor="middle" x="1822.34" y="-344.6" font-family="Times,serif" font-size="14.00">miRBase_hairpin_collapse_bam</text>
</g>
<!-- p40 -->
<g id="node50" class="node">
<title>p40</title>
<ellipse fill="black" stroke="black" cx="1873.84" cy="-145.2" rx="1.8" ry="1.8"/>
</g>
<!-- p36&#45;&gt;p40 -->
<g id="edge47" class="edge">
<title>p36&#45;&gt;p40</title>
<path fill="none" stroke="black" d="M1858.68,-199.71C1862.45,-186.4 1867.57,-168.32 1870.79,-156.96"/>
<polygon fill="black" stroke="black" points="1874.25,-157.6 1873.61,-147.02 1867.51,-155.69 1874.25,-157.6"/>
<text text-anchor="middle" x="1904.84" y="-170.6" font-family="Times,serif" font-size="14.00">mirtop_gff</text>
</g>
<!-- p39 -->
<g id="node51" class="node">
<title>p39</title>
<ellipse fill="black" stroke="black" cx="1970.84" cy="-145.2" rx="1.8" ry="1.8"/>
</g>
<!-- p36&#45;&gt;p39 -->
<g id="edge48" class="edge">
<title>p36&#45;&gt;p39</title>
<path fill="none" stroke="black" d="M1907.76,-202.38C1921.04,-197.25 1934.64,-190.51 1945.84,-181.8 1954.6,-174.98 1961.54,-164.26 1965.87,-156.36"/>
<polygon fill="black" stroke="black" points="1969.08,-157.76 1970.39,-147.24 1962.81,-154.65 1969.08,-157.76"/>
<text text-anchor="middle" x="1997.34" y="-170.6" font-family="Times,serif" font-size="14.00">mirtop_tsv</text>
</g>
<!-- p38 -->
<g id="node52" class="node">
<title>p38</title>
<ellipse fill="black" stroke="black" cx="1682.84" cy="-145.2" rx="1.8" ry="1.8"/>
</g>
<!-- p36&#45;&gt;p38 -->
<g id="edge49" class="edge">
<title>p36&#45;&gt;p38</title>
<path fill="none" stroke="black" d="M1765.03,-208.36C1743.52,-203.14 1721.62,-194.86 1703.84,-181.8 1695.44,-175.63 1689.81,-165 1686.51,-156.96"/>
<polygon fill="black" stroke="black" points="1689.74,-155.57 1683.13,-147.28 1683.13,-157.88 1689.74,-155.57"/>
<text text-anchor="middle" x="1739.34" y="-170.6" font-family="Times,serif" font-size="14.00">mirna_tsv</text>
</g>
<!-- p37 -->
<g id="node53" class="node">
<title>p37</title>
<ellipse fill="black" stroke="black" cx="1776.84" cy="-145.2" rx="1.8" ry="1.8"/>
</g>
<!-- p36&#45;&gt;p37 -->
<g id="edge50" class="edge">
<title>p36&#45;&gt;p37</title>
<path fill="none" stroke="black" d="M1810.28,-201.33C1801.11,-196.32 1792.28,-189.91 1785.84,-181.8 1780.29,-174.81 1778.11,-164.82 1777.29,-157.2"/>
<polygon fill="black" stroke="black" points="1780.78,-157.03 1776.81,-147.21 1773.79,-157.36 1780.78,-157.03"/>
<text text-anchor="middle" x="1822.84" y="-170.6" font-family="Times,serif" font-size="14.00">isomir_tsv</text>
</g>
<!-- p57&#45;&gt;p66 -->
<g id="edge67" class="edge">
<title>p57&#45;&gt;p66</title>
<path fill="none" stroke="black" d="M1513.26,-432.54C1501.78,-424.49 1455.84,-389.76 1455.84,-349.3 1455.84,-349.3 1455.84,-349.3 1455.84,-144.2 1455.84,-129.93 1455.84,-114.04 1455.84,-100.96"/>
<polygon fill="black" stroke="black" points="1459.34,-100.72 1455.84,-90.72 1452.34,-100.72 1459.34,-100.72"/>
</g>
<!-- p21&#45;&gt;p26 -->
<g id="edge31" class="edge">
<title>p21&#45;&gt;p26</title>
<path fill="none" stroke="black" d="M1565.86,-463.95C1593.23,-450.42 1635.29,-429.64 1666.89,-414.03"/>
<polygon fill="black" stroke="black" points="1668.5,-417.13 1675.92,-409.56 1665.4,-410.86 1668.5,-417.13"/>
<text text-anchor="middle" x="1688.34" y="-431.6" font-family="Times,serif" font-size="14.00">collapsed_fasta</text>
</g>
<!-- p43 -->
<g id="node54" class="node">
<title>p43</title>
<ellipse fill="none" stroke="black" cx="122.84" cy="-391.8" rx="122.68" ry="18"/>
<text text-anchor="middle" x="122.84" y="-388.1" font-family="Times,serif" font-size="14.00">genome_post_alignment</text>
</g>
<!-- p42&#45;&gt;p43 -->
<g id="edge52" class="edge">
<title>p42&#45;&gt;p43</title>
<path fill="none" stroke="black" d="M273.13,-464.52C256.67,-458.32 237.11,-450.58 219.84,-442.8 200.6,-434.13 179.74,-423.54 162.32,-414.34"/>
<polygon fill="black" stroke="black" points="163.49,-411 153.02,-409.4 160.2,-417.18 163.49,-411"/>
<text text-anchor="middle" x="262.84" y="-431.6" font-family="Times,serif" font-size="14.00">bowtie_bam</text>
</g>
<!-- p44 -->
<g id="node55" class="node">
<title>p44</title>
<ellipse fill="none" stroke="black" cx="309.84" cy="-391.8" rx="3.5" ry="3.5"/>
<text text-anchor="middle" x="351.34" y="-377.1" font-family="Times,serif" font-size="14.00">toSortedList</text>
</g>
<!-- p42&#45;&gt;p44 -->
<g id="edge53" class="edge">
<title>p42&#45;&gt;p44</title>
<path fill="none" stroke="black" d="M309.84,-460.6C309.84,-444.41 309.84,-420.51 309.84,-405.84"/>
<polygon fill="black" stroke="black" points="313.34,-405.44 309.84,-395.44 306.34,-405.44 313.34,-405.44"/>
<text text-anchor="middle" x="407.34" y="-431.6" font-family="Times,serif" font-size="14.00">bowtie_bam_for_unmapped</text>
</g>
<!-- p20 -->
<g id="node37" class="node">
<title>p20</title>
<ellipse fill="black" stroke="black" cx="1226.84" cy="-391.8" rx="1.8" ry="1.8"/>
</g>
<!-- p19&#45;&gt;p20 -->
<g id="edge30" class="edge">
<title>p19&#45;&gt;p20</title>
<path fill="none" stroke="black" d="M1237.91,-461.85C1232.25,-456.5 1226.89,-450.03 1223.84,-442.8 1218.51,-430.18 1220.87,-414.17 1223.48,-403.71"/>
<polygon fill="black" stroke="black" points="1226.84,-404.69 1226.35,-394.11 1220.13,-402.68 1226.84,-404.69"/>
<text text-anchor="middle" x="1287.34" y="-431.6" font-family="Times,serif" font-size="14.00">insertsize_results</text>
</g>
<!-- p47&#45;&gt;p49 -->
<g id="edge57" class="edge">
<title>p47&#45;&gt;p49</title>
<path fill="none" stroke="black" d="M734.38,-461.01C712.63,-447.71 682.08,-429.03 658.46,-414.58"/>
<polygon fill="black" stroke="black" points="660.13,-411.5 649.77,-409.27 656.48,-417.47 660.13,-411.5"/>
<text text-anchor="middle" x="792.84" y="-431.6" font-family="Times,serif" font-size="14.00">trimmed_reads_mirdeep2</text>
</g>
<!-- p58&#45;&gt;p66 -->
<g id="edge68" class="edge">
<title>p58&#45;&gt;p66</title>
<path fill="none" stroke="black" d="M1137.2,-345.49C1147.73,-337.22 1189.84,-301.67 1189.84,-262.3 1189.84,-262.3 1189.84,-262.3 1189.84,-144.2 1189.84,-101.05 1322.28,-83.64 1400.26,-77.13"/>
<polygon fill="black" stroke="black" points="1400.73,-80.61 1410.41,-76.32 1400.17,-73.63 1400.73,-80.61"/>
</g>
<!-- p28 -->
<g id="node42" class="node">
<title>p28</title>
<ellipse fill="none" stroke="black" cx="2395.84" cy="-217.8" rx="113.98" ry="18"/>
<text text-anchor="middle" x="2395.84" y="-214.1" font-family="Times,serif" font-size="14.00">mirna_post_alignment</text>
</g>
<!-- p27&#45;&gt;p28 -->
<g id="edge38" class="edge">
<title>p27&#45;&gt;p28</title>
<path fill="none" stroke="black" d="M1983.94,-303.16C2010.94,-297.63 2207.75,-257.32 2319.27,-234.48"/>
<polygon fill="black" stroke="black" points="2320.03,-237.9 2329.12,-232.46 2318.62,-231.04 2320.03,-237.9"/>
</g>
<!-- p34&#45;&gt;p36 -->
<g id="edge45" class="edge">
<title>p34&#45;&gt;p36</title>
<path fill="none" stroke="black" d="M1849.01,-300.97C1849.5,-292.48 1851.03,-266.55 1852.24,-246.07"/>
<polygon fill="black" stroke="black" points="1855.74,-246.16 1852.83,-235.97 1848.75,-245.75 1855.74,-246.16"/>
</g>
<!-- p31 -->
<g id="node43" class="node">
<title>p31</title>
<ellipse fill="none" stroke="black" cx="2519.84" cy="-145.2" rx="3.5" ry="3.5"/>
<text text-anchor="middle" x="2471.34" y="-152.5" font-family="Times,serif" font-size="14.00">toSortedList</text>
</g>
<!-- p28&#45;&gt;p31 -->
<g id="edge39" class="edge">
<title>p28&#45;&gt;p31</title>
<path fill="none" stroke="black" d="M2458.65,-202.78C2472.5,-197.72 2486.43,-190.91 2497.84,-181.8 2505.62,-175.59 2511.38,-165.82 2515.04,-158.09"/>
<polygon fill="black" stroke="black" points="2518.27,-159.44 2518.92,-148.86 2511.82,-156.73 2518.27,-159.44"/>
<text text-anchor="middle" x="2568.84" y="-170.6" font-family="Times,serif" font-size="14.00">miRBase_counts</text>
</g>
<!-- p60 -->
<g id="node44" class="node">
<title>p60</title>
<ellipse fill="none" stroke="black" cx="2032.84" cy="-145.2" rx="3.5" ry="3.5"/>
<text text-anchor="middle" x="2005.84" y="-152.5" font-family="Times,serif" font-size="14.00">collect</text>
</g>
<!-- p28&#45;&gt;p60 -->
<g id="edge40" class="edge">
<title>p28&#45;&gt;p60</title>
<path fill="none" stroke="black" d="M2284.3,-214.06C2227.11,-210.1 2157.02,-201.22 2096.84,-181.8 2076.62,-175.28 2055.54,-162.11 2043.33,-153.74"/>
<polygon fill="black" stroke="black" points="2045.3,-150.86 2035.12,-147.92 2041.25,-156.56 2045.3,-150.86"/>
<text text-anchor="middle" x="2190.34" y="-170.6" font-family="Times,serif" font-size="14.00">ch_sort_bam_flagstat_mqc</text>
</g>
<!-- p30 -->
<g id="node45" class="node">
<title>p30</title>
<ellipse fill="black" stroke="black" cx="2395.84" cy="-145.2" rx="1.8" ry="1.8"/>
</g>
<!-- p28&#45;&gt;p30 -->
<g id="edge41" class="edge">
<title>p28&#45;&gt;p30</title>
<path fill="none" stroke="black" d="M2395.84,-199.71C2395.84,-186.54 2395.84,-168.72 2395.84,-157.34"/>
<polygon fill="black" stroke="black" points="2399.34,-157.02 2395.84,-147.02 2392.34,-157.02 2399.34,-157.02"/>
<text text-anchor="middle" x="2446.34" y="-170.6" font-family="Times,serif" font-size="14.00">miRBase_bam</text>
</g>
<!-- p29 -->
<g id="node46" class="node">
<title>p29</title>
<ellipse fill="black" stroke="black" cx="2280.84" cy="-145.2" rx="1.8" ry="1.8"/>
</g>
<!-- p28&#45;&gt;p29 -->
<g id="edge42" class="edge">
<title>p28&#45;&gt;p29</title>
<path fill="none" stroke="black" d="M2335.55,-202.43C2322.78,-197.4 2310.09,-190.7 2299.84,-181.8 2292.25,-175.21 2287.2,-164.82 2284.22,-156.96"/>
<polygon fill="black" stroke="black" points="2287.49,-155.7 2281.1,-147.25 2280.83,-157.84 2287.49,-155.7"/>
<text text-anchor="middle" x="2345.84" y="-170.6" font-family="Times,serif" font-size="14.00">miRBase_bai</text>
</g>
<!-- p32 -->
<g id="node47" class="node">
<title>p32</title>
<ellipse fill="none" stroke="black" cx="2519.84" cy="-72.6" rx="71.49" ry="18"/>
<text text-anchor="middle" x="2519.84" y="-68.9" font-family="Times,serif" font-size="14.00">edgeR_mirna</text>
</g>
<!-- p31&#45;&gt;p32 -->
<g id="edge43" class="edge">
<title>p31&#45;&gt;p32</title>
<path fill="none" stroke="black" d="M2519.84,-141.52C2519.84,-134.85 2519.84,-116.9 2519.84,-101.13"/>
<polygon fill="black" stroke="black" points="2523.34,-100.73 2519.84,-90.73 2516.34,-100.73 2523.34,-100.73"/>
</g>
<!-- p60&#45;&gt;p66 -->
<g id="edge70" class="edge">
<title>p60&#45;&gt;p66</title>
<path fill="none" stroke="black" d="M2029.45,-143.79C1991.47,-139.14 1644.37,-96.67 1509.28,-80.14"/>
<polygon fill="black" stroke="black" points="1509.52,-76.64 1499.17,-78.9 1508.67,-83.59 1509.52,-76.64"/>
</g>
<!-- p33 -->
<g id="node48" class="node">
<title>p33</title>
<ellipse fill="black" stroke="black" cx="2519.84" cy="-1.8" rx="1.8" ry="1.8"/>
</g>
<!-- p32&#45;&gt;p33 -->
<g id="edge44" class="edge">
<title>p32&#45;&gt;p33</title>
<path fill="none" stroke="black" d="M2519.84,-54.59C2519.84,-42.06 2519.84,-25.34 2519.84,-14.34"/>
<polygon fill="black" stroke="black" points="2523.34,-14.19 2519.84,-4.19 2516.34,-14.19 2523.34,-14.19"/>
<text text-anchor="middle" x="2605.84" y="-25.4" font-family="Times,serif" font-size="14.00">edgeR_miRBase_results</text>
</g>
<!-- p35 -->
<g id="node49" class="node">
<title>p35</title>
<ellipse fill="black" stroke="black" cx="1817.84" cy="-304.8" rx="3.6" ry="3.6"/>
</g>
<!-- p35&#45;&gt;p36 -->
<g id="edge46" class="edge">
<title>p35&#45;&gt;p36</title>
<path fill="none" stroke="black" d="M1817.8,-300.95C1817.78,-293.08 1818.44,-270.52 1825.84,-253.8 1827.34,-250.4 1829.27,-247.05 1831.39,-243.84"/>
<polygon fill="black" stroke="black" points="1834.22,-245.9 1837.36,-235.79 1828.6,-241.74 1834.22,-245.9"/>
<text text-anchor="middle" x="1836.34" y="-257.6" font-family="Times,serif" font-size="14.00">gtf</text>
</g>
<!-- p61 -->
<g id="node56" class="node">
<title>p61</title>
<ellipse fill="none" stroke="black" cx="136.84" cy="-304.8" rx="3.5" ry="3.5"/>
<text text-anchor="middle" x="109.84" y="-312.1" font-family="Times,serif" font-size="14.00">collect</text>
</g>
<!-- p43&#45;&gt;p61 -->
<g id="edge54" class="edge">
<title>p43&#45;&gt;p61</title>
<path fill="none" stroke="black" d="M101.56,-373.76C92.49,-364.34 85.16,-352.25 90.84,-340.8 97.79,-326.77 113.35,-316.85 124.45,-311.23"/>
<polygon fill="black" stroke="black" points="125.93,-314.4 133.57,-307.06 123.02,-308.03 125.93,-314.4"/>
<text text-anchor="middle" x="198.34" y="-344.6" font-family="Times,serif" font-size="14.00">ch_genome_bam_flagstat_mqc</text>
</g>
<!-- p45 -->
<g id="node57" class="node">
<title>p45</title>
<ellipse fill="none" stroke="black" cx="309.84" cy="-304.8" rx="94.78" ry="18"/>
<text text-anchor="middle" x="309.84" y="-301.1" font-family="Times,serif" font-size="14.00">bowtie_unmapped</text>
</g>
<!-- p44&#45;&gt;p45 -->
<g id="edge55" class="edge">
<title>p44&#45;&gt;p45</title>
<path fill="none" stroke="black" d="M309.84,-387.97C309.84,-379.48 309.84,-353.55 309.84,-333.07"/>
<polygon fill="black" stroke="black" points="313.34,-332.97 309.84,-322.97 306.34,-332.97 313.34,-332.97"/>
</g>
<!-- p62 -->
<g id="node66" class="node">
<title>p62</title>
<ellipse fill="none" stroke="black" cx="541.84" cy="-174.3" rx="3.5" ry="3.5"/>
<text text-anchor="middle" x="509.34" y="-181.6" font-family="Times,serif" font-size="14.00">ifEmpty</text>
</g>
<!-- p61&#45;&gt;p62 -->
<g id="edge71" class="edge">
<title>p61&#45;&gt;p62</title>
<path fill="none" stroke="black" d="M138.91,-301.9C152.06,-290 225.63,-225.34 298.84,-199.8 341.84,-184.8 483.75,-177.72 528.32,-175.83"/>
<polygon fill="black" stroke="black" points="528.64,-179.32 538.49,-175.42 528.35,-172.33 528.64,-179.32"/>
</g>
<!-- p46 -->
<g id="node58" class="node">
<title>p46</title>
<ellipse fill="black" stroke="black" cx="309.84" cy="-217.8" rx="1.8" ry="1.8"/>
</g>
<!-- p45&#45;&gt;p46 -->
<g id="edge56" class="edge">
<title>p45&#45;&gt;p46</title>
<path fill="none" stroke="black" d="M309.84,-286.6C309.84,-269.72 309.84,-244.46 309.84,-230.02"/>
<polygon fill="black" stroke="black" points="313.34,-229.88 309.84,-219.88 306.34,-229.88 313.34,-229.88"/>
<text text-anchor="middle" x="374.84" y="-257.6" font-family="Times,serif" font-size="14.00">bowtie_unmapped</text>
</g>
<!-- p49&#45;&gt;p52 -->
<g id="edge59" class="edge">
<title>p49&#45;&gt;p52</title>
<path fill="none" stroke="black" d="M588.92,-374.9C577.31,-369.18 564.36,-362.48 552.84,-355.8 548.28,-353.16 527.76,-339.46 509.34,-327.07"/>
<polygon fill="black" stroke="black" points="511.06,-324.01 500.81,-321.33 507.15,-329.81 511.06,-324.01"/>
<text text-anchor="middle" x="642.84" y="-344.6" font-family="Times,serif" font-size="14.00">mirdeep_reads_collapsed</text>
</g>
<!-- p49&#45;&gt;p52 -->
<g id="edge60" class="edge">
<title>p49&#45;&gt;p52</title>
<path fill="none" stroke="black" d="M695.16,-379.99C725.27,-372.45 749.73,-360.17 732.84,-340.8 708.71,-313.13 610.5,-306.56 543.25,-305.41"/>
<polygon fill="black" stroke="black" points="543.2,-301.9 533.15,-305.27 543.1,-308.9 543.2,-301.9"/>
<text text-anchor="middle" x="792.84" y="-344.6" font-family="Times,serif" font-size="14.00">reads_vs_refdb</text>
</g>
<!-- p50 -->
<g id="node60" class="node">
<title>p50</title>
<ellipse fill="black" stroke="black" cx="401.84" cy="-391.8" rx="3.6" ry="3.6"/>
</g>
<!-- p50&#45;&gt;p52 -->
<g id="edge61" class="edge">
<title>p50&#45;&gt;p52</title>
<path fill="none" stroke="black" d="M402.28,-388.22C403.75,-380.32 409.13,-356.01 421.84,-340.8 426.64,-335.06 432.64,-329.96 438.91,-325.57"/>
<polygon fill="black" stroke="black" points="441.03,-328.36 447.54,-320 437.24,-322.48 441.03,-328.36"/>
<text text-anchor="middle" x="447.84" y="-344.6" font-family="Times,serif" font-size="14.00">mature</text>
</g>
<!-- p51 -->
<g id="node61" class="node">
<title>p51</title>
<ellipse fill="black" stroke="black" cx="476.84" cy="-391.8" rx="3.6" ry="3.6"/>
</g>
<!-- p51&#45;&gt;p52 -->
<g id="edge62" class="edge">
<title>p51&#45;&gt;p52</title>
<path fill="none" stroke="black" d="M476.87,-387.97C476.97,-379.48 477.28,-353.55 477.52,-333.07"/>
<polygon fill="black" stroke="black" points="481.02,-333.01 477.64,-322.97 474.02,-332.93 481.02,-333.01"/>
<text text-anchor="middle" x="503.84" y="-344.6" font-family="Times,serif" font-size="14.00">hairpin</text>
</g>
<!-- p59 -->
<g id="node63" class="node">
<title>p59</title>
<ellipse fill="none" stroke="black" cx="946.84" cy="-261.3" rx="3.5" ry="3.5"/>
<text text-anchor="middle" x="919.84" y="-268.6" font-family="Times,serif" font-size="14.00">collect</text>
</g>
<!-- p54&#45;&gt;p59 -->
<g id="edge64" class="edge">
<title>p54&#45;&gt;p59</title>
<path fill="none" stroke="black" d="M574,-467.77C585.8,-465.14 598.78,-462.55 610.84,-460.8 638.73,-456.75 840.67,-458.84 863.84,-442.8 922.43,-402.25 940.51,-309.61 945.3,-275.35"/>
<polygon fill="black" stroke="black" points="948.82,-275.41 946.58,-265.05 941.88,-274.55 948.82,-275.41"/>
<text text-anchor="middle" x="976.84" y="-388.1" font-family="Times,serif" font-size="14.00">mirtrace_results</text>
</g>
<!-- p59&#45;&gt;p66 -->
<g id="edge69" class="edge">
<title>p59&#45;&gt;p66</title>
<path fill="none" stroke="black" d="M948.88,-258.38C964.73,-243.63 1070.3,-147.69 1175.84,-108.6 1249.73,-81.23 1341.3,-74.44 1399.17,-73.17"/>
<polygon fill="black" stroke="black" points="1399.28,-76.67 1409.21,-73 1399.16,-69.67 1399.28,-76.67"/>
</g>
<!-- p56&#45;&gt;p66 -->
<g id="edge66" class="edge">
<title>p56&#45;&gt;p66</title>
<path fill="none" stroke="black" d="M2595.31,-143.78C2567.97,-140.51 2387.27,-119.19 2239.84,-108.6 1967.27,-89.02 1640.56,-78.64 1511.86,-75.06"/>
<polygon fill="black" stroke="black" points="1511.93,-71.56 1501.84,-74.78 1511.74,-78.56 1511.93,-71.56"/>
</g>
<!-- p67 -->
<g id="node68" class="node">
<title>p67</title>
<ellipse fill="black" stroke="black" cx="1455.84" cy="-1.8" rx="1.8" ry="1.8"/>
</g>
<!-- p66&#45;&gt;p67 -->
<g id="edge76" class="edge">
<title>p66&#45;&gt;p67</title>
<path fill="none" stroke="black" d="M1455.84,-54.59C1455.84,-42.06 1455.84,-25.34 1455.84,-14.34"/>
<polygon fill="black" stroke="black" points="1459.34,-14.19 1455.84,-4.19 1452.34,-14.19 1459.34,-14.19"/>
<text text-anchor="middle" x="1520.84" y="-25.4" font-family="Times,serif" font-size="14.00">ch_multiqc_report</text>
</g>
<!-- p62&#45;&gt;p66 -->
<g id="edge72" class="edge">
<title>p62&#45;&gt;p66</title>
<path fill="none" stroke="black" d="M545.11,-172.76C575.38,-167.76 809.63,-129.41 1000.84,-108.6 1144.64,-92.95 1314.76,-81.82 1400.51,-76.72"/>
<polygon fill="black" stroke="black" points="1400.77,-80.21 1410.54,-76.13 1400.36,-73.23 1400.77,-80.21"/>
</g>
<!-- p65 -->
<g id="node67" class="node">
<title>p65</title>
<ellipse fill="black" stroke="black" cx="2303.84" cy="-145.2" rx="3.6" ry="3.6"/>
</g>
<!-- p65&#45;&gt;p66 -->
<g id="edge75" class="edge">
<title>p65&#45;&gt;p66</title>
<path fill="none" stroke="black" d="M2300.7,-143.4C2298.29,-142.82 2294.88,-142.05 2291.84,-141.6 2000.19,-98.34 1646.92,-80.97 1511.95,-75.6"/>
<polygon fill="black" stroke="black" points="1511.98,-72.1 1501.85,-75.21 1511.7,-79.09 1511.98,-72.1"/>
<text text-anchor="middle" x="2183.84" y="-112.4" font-family="Times,serif" font-size="14.00">multiqc_config</text>
</g>
<!-- p68 -->
<g id="node69" class="node">
<title>p68</title>
<ellipse fill="black" stroke="black" cx="1142.84" cy="-769.6" rx="3.6" ry="3.6"/>
</g>
<!-- p70 -->
<g id="node70" class="node">
<title>p70</title>
<ellipse fill="none" stroke="black" cx="1196.84" cy="-697" rx="115.08" ry="18"/>
<text text-anchor="middle" x="1196.84" y="-693.3" font-family="Times,serif" font-size="14.00">output_documentation</text>
</g>
<!-- p68&#45;&gt;p70 -->
<g id="edge77" class="edge">
<title>p68&#45;&gt;p70</title>
<path fill="none" stroke="black" d="M1142.1,-765.79C1140.6,-759.46 1137.83,-743.81 1143.84,-733 1146.39,-728.42 1149.82,-724.33 1153.71,-720.72"/>
<polygon fill="black" stroke="black" points="1156.06,-723.32 1161.67,-714.33 1151.68,-717.86 1156.06,-723.32"/>
<text text-anchor="middle" x="1187.34" y="-736.8" font-family="Times,serif" font-size="14.00">output_docs</text>
</g>
<!-- p69 -->
<g id="node71" class="node">
<title>p69</title>
<ellipse fill="black" stroke="black" cx="1252.84" cy="-769.6" rx="3.6" ry="3.6"/>
</g>
<!-- p69&#45;&gt;p70 -->
<g id="edge78" class="edge">
<title>p69&#45;&gt;p70</title>
<path fill="none" stroke="black" d="M1251.42,-765.88C1248.18,-759.74 1239.77,-744.46 1230.84,-733 1228.07,-729.45 1224.98,-725.86 1221.83,-722.4"/>
<polygon fill="black" stroke="black" points="1224.34,-719.97 1214.92,-715.12 1219.26,-724.79 1224.34,-719.97"/>
<text text-anchor="middle" x="1266.84" y="-736.8" font-family="Times,serif" font-size="14.00">images</text>
</g>
</g>
</svg>
